# xmcd
#
# Track frame offsets:
#	225
#	14986
#	28805
#	43465
#	55851
#	77177
#	97754
#	122336
#	134726
#	152596
#	173287
#	197878
#	212991
#	236480
#	253072
#	266061
#
# Disc length: 3774 seconds
#
# Revision: 0
# Processed by: cddbd v1.5.2PL0 Copyright (c) Steve Scherf et al.
# Submitted via: EasyCDDAExtractor 16.0.8.1
#
DISCID=e60ebb10
DTITLE=Dimension Latina - 25 Años De Historia Vol. 2
DYEAR=2000
DGENRE=Salsa
TTITLE0=Un Beso Tuyo
TTITLE1=Madre
TTITLE2=Aprende Conmigo
TTITLE3=Nadie Mas Que Tu
TTITLE4=El Cachumbambe
TTITLE5=El Eco Del Tambor
TTITLE6=Mata Siguaraya
TTITLE7=A Mi Tierra
TTITLE8=Retorna Vida Mia
TTITLE9=Quizqueya
TTITLE10=Enamorado
TTITLE11=La Comprita
TTITLE12=El Baile Del Suavecito
TTITLE13=Sin Tu Cariño
TTITLE14=La Piragua
TTITLE15=El Que Siembra Su Maiz
EXTD=
EXTT0=
EXTT1=
EXTT2=
EXTT3=
EXTT4=
EXTT5=
EXTT6=
EXTT7=
EXTT8=
EXTT9=
EXTT10=
EXTT11=
EXTT12=
EXTT13=
EXTT14=
EXTT15=
PLAYORDER=
